<?xml version="1.0" standalone="no"?>
<!DOCTYPE svg PUBLIC "-//W3C//DTD SVG 1.1//EN" "http://www.w3.org/Graphics/SVG/1.1/DTD/svg11.dtd" >
<svg xmlns="http://www.w3.org/2000/svg">
<metadata>
Created by FontForge 20120731 at Fri Jun 19 10:33:07 2015
 By Ads
</metadata>
<defs>
<font id="iconfont" horiz-adv-x="1024" >
  <font-face 
    font-family="iconfont"
    font-weight="500"
    font-stretch="normal"
    units-per-em="1024"
    panose-1="2 0 6 3 0 0 0 0 0 0"
    ascent="812"
    descent="-212"
    x-height="792"
    bbox="-0.130435 -224 1024.13 812"
    underline-thickness="50"
    underline-position="-100"
    unicode-range="U+0078-E617"
  />
<missing-glyph horiz-adv-x="374" 
d="M34 0v682h272v-682h-272zM68 34h204v614h-204v-614z" />
    <glyph glyph-name=".notdef" horiz-adv-x="374" 
d="M34 0v682h272v-682h-272zM68 34h204v614h-204v-614z" />
    <glyph glyph-name=".null" horiz-adv-x="0" 
 />
    <glyph glyph-name="nonmarkingreturn" horiz-adv-x="341" 
 />
    <glyph glyph-name="x" unicode="x" horiz-adv-x="1001" 
d="M281 543q-27 -1 -53 -1h-83q-18 0 -36.5 -6t-32.5 -18.5t-23 -32t-9 -45.5v-76h912v41q0 16 -0.5 30t-0.5 18q0 13 -5 29t-17 29.5t-31.5 22.5t-49.5 9h-133v-97h-438v97zM955 310v-52q0 -23 0.5 -52t0.5 -58t-10.5 -47.5t-26 -30t-33 -16t-31.5 -4.5q-14 -1 -29.5 -0.5
t-29.5 0.5h-32l-45 128h-439l-44 -128h-29h-34q-20 0 -45 1q-25 0 -41 9.5t-25.5 23t-13.5 29.5t-4 30v167h911zM163 247q-12 0 -21 -8.5t-9 -21.5t9 -21.5t21 -8.5q13 0 22 8.5t9 21.5t-9 21.5t-22 8.5zM316 123q-8 -26 -14 -48q-5 -19 -10.5 -37t-7.5 -25t-3 -15t1 -14.5
t9.5 -10.5t21.5 -4h37h67h81h80h64h36q23 0 34 12t2 38q-5 13 -9.5 30.5t-9.5 34.5q-5 19 -11 39h-368zM336 498v228q0 11 2.5 23t10 21.5t20.5 15.5t34 6h188q31 0 51.5 -14.5t20.5 -52.5v-227h-327z" />
    <glyph glyph-name="uniE600" unicode="&#xe600;" 
d="M748 469h-287v141q0 26 -16 35t-39 -6l-278 -180q-22 -15 -22 -35.5t22 -34.5l276 -179q23 -13 40 -3t17 32v122h206q24 0 43 -8t30.5 -20t20 -28.5t12.5 -29.5t6 -28t2 -20v-8q-1 0 0 -8.5t-1.5 -23t-5 -31.5t-11.5 -34t-20.5 -31t-31 -23t-44.5 -9h-425q-2 0 -5.5 -1
t-12 -4.5t-15 -9t-12 -16.5t-5.5 -25.5t5.5 -25.5t12 -16t15 -8t12 -3.5t5.5 -0.5h506q47 0 82 28t51 68t25.5 80.5t10.5 68.5l1 28q0 5 -0.5 14t-4 34.5t-9 49t-18.5 52t-30 49t-45 34.5t-63 14z" />
    <glyph glyph-name="uniE601" unicode="&#xe601;" 
d="M507 135l67 67l-87 87l-66 -67v-32h54v-55h32zM759 547q-9 9 -19 -1l-200 -200q-10 -9 -0.5 -18.5t18.5 0.5l200 200q10 10 1 19zM805 207v-108q0 -68 -48.5 -116.5t-116.5 -48.5h-475q-68 0 -116.5 48.5t-48.5 116.5v475q0 68 48.5 116.5t116.5 48.5h475q36 0 67 -14
q8 -4 10 -14q2 -9 -5 -16l-28 -28q-8 -8 -18 -5q-13 4 -26 4h-475q-38 0 -65 -27t-27 -65v-475q0 -38 27 -65t65 -27h475q38 0 64.5 27t26.5 65v72q0 7 6 12l36 37q9 9 20.5 4t11.5 -17zM750 629l164 -164l-384 -384h-164v164zM1003 554l-52 -53l-165 165l53 52q16 16 39 16
t39 -16l86 -87q16 -16 16 -38.5t-16 -38.5z" />
    <glyph glyph-name="uniE602" unicode="&#xe602;" 
d="M188 567h648v-92h-648v92zM188 331h648v-92h-648v92zM188 101h648v-92h-648v92z" />
    <glyph glyph-name="uniE603" unicode="&#xe603;" 
d="M544 -84h64v-64h-64v64zM416 396v352h-352v-352h64v-64h64v64h224zM128 460v224h224v-224h-224zM192 620h96v-96h-96v96zM608 748v-352h352v352h-352zM896 460h-224v224h224v-224zM736 620h96v-96h-96v96zM192 76h96v-96h-96v96zM64 332h64v-64h-64v64zM192 332h64v-64
h-64v64zM256 204h-192v-352h352v352h-96v64h-64v-64zM352 140v-224h-224v224h224zM480 716h64v-96h-64v96zM480 556h64v-64h-64v64zM672 332h-64h-64v96h-64v-96h-160v-64h160h64h64v-64h64v64v64zM672 204h64v-64h-64v64zM480 204h64v-96h-64v96zM480 44h64v-128h-64v128z
M608 108h64v-192h-64v192zM800 204h160v-64h-160v64zM896 332h64v-64h-64v64zM736 332h128v-64h-128v64zM736 108h64v-64h-64v64zM896 44h-32v-64h64v64h32v64h-64v-64zM736 -20h64v-64h-64v64zM800 -84h160v-64h-160v64z" />
    <glyph glyph-name="uniE604" unicode="&#xe604;" 
d="M343 14q-37 0 -63.5 -26.5t-26.5 -64.5t26 -64.5t63.5 -26.5t64 26.5t26.5 64.5t-26.5 64.5t-63.5 26.5zM342.5 -107q-12.5 0 -21 9t-8.5 21.5t8.5 21t21 8.5t21.5 -8.5t9 -21t-9 -21.5t-21.5 -9zM944 682h-745l-6 30q0 13 -9 21.5t-21 8.5h-120q-13 0 -22 -8.5t-9 -21
t9 -21.5t22 -9h96l114 -577q0 -12 8.5 -21t21.5 -9h540q13 0 21.5 9t8.5 21.5t-8.5 21t-21.5 8.5h-516l-24 122h570q6 0 12 2q11 5 16 16q3 6 3 12l87 352q3 6 3 12q0 13 -9 22t-21 9zM373 318h-102l-60 303h162v-303zM553 318h-150v303h150v-303zM733 318h-150v303h150
v-303zM831 318h-68v303h144zM763.5 14q-37.5 0 -64 -26.5t-26.5 -64.5t26.5 -64.5t64 -26.5t63.5 26.5t26 64.5t-26 64.5t-63.5 26.5zM763.5 -107q-12.5 0 -21.5 9t-9 21.5t9 21t21.5 8.5t21 -8.5t8.5 -21t-8.5 -21.5t-21 -9z" />
    <glyph glyph-name="uniE605" unicode="&#xe605;" horiz-adv-x="1025" 
d="M512 812q-104 0 -199 -40.5t-163.5 -109t-109 -163.5t-40.5 -199t40.5 -199t109 -163.5t163.5 -109t199 -40.5t199 40.5t163.5 109t109 163.5t40.5 199t-40.5 199t-109 163.5t-163.5 109t-199 40.5zM512 -148q-91 0 -174 35.5t-143 95.5t-95.5 143t-35.5 174t35.5 174
t95.5 143t143 95.5t174 35.5t174 -35.5t143 -95.5t95.5 -143t35.5 -174t-35.5 -174t-95.5 -143t-143 -95.5t-174 -35.5zM628 492v-45h-44v-45h-47v-45h-3h-40h-3v45h-47v45h-44v45h-134v-45h44v-45h47v-45h43v-46h-90v-45h136v-45h-136v-45h136v-91h134v91h136v45h-136v45
h136v45h-88v1v45h43v45h47v45h44v45h-134z" />
    <glyph glyph-name="uniE606" unicode="&#xe606;" 
d="M991 329q0 98 -38.5 187.5t-103 154t-154 103t-187.5 38.5t-187.5 -38.5t-154.5 -103t-103 -154t-38 -187.5q0 -94 34 -179t96 -151v-210l110 -1l115 1v74q64 -18 128 -18q62 0 126 18v-74l115 -1l110 1v208q62 67 97 152t35 180zM325 -153h-116v103q54 -43 116 -68v-35z
M81 328.5q0 115.5 57.5 214t155.5 155.5t214 57t214 -57t155 -155.5t57 -214t-57 -214t-155 -155.5t-214 -57t-214 57t-155.5 155.5t-57.5 214zM689 -153v34q62 25 116 67v-101h-116zM390 601q-29 6 -62 22q-10 -69 -36 -131q-16 -40 -46 -88t-54 -74q6 -4 23 -11.5
t22 -15.5q35 49 55 88v-204q0 -69 -7 -134h56v444q35 71 50 86q10 9 9.5 12.5t-10.5 5.5zM551 200q-23 7 -55 24q-16 -32 -56 -77t-74 -66q19 -5 34 -14t20 -18q114 127 127 134q26 11 4 17zM664 434q43 0 91 -5v55q-50 -5 -91 -6v92q0 31 9 36q6 4 5.5 7t-8.5 3
q-34 0 -56 4q3 -18 3 -97v-45h-90v91q0 31 9 37q7 3 6.5 6.5t-8.5 3.5q-30 -1 -57 3q2 -19 2 -97v-44q-40 2 -81 6v-55q44 4 81 5v-140q-55 1 -96 6v-57q66 6 196 6q131 0 197 -6v57q-49 -6 -112 -6v140zM617 294h-90v140h90v-140zM653 220l-43 -32q58 -51 112 -131l50 42
q-51 59 -119 121z" />
    <glyph glyph-name="uniE607" unicode="&#xe607;" 
d="M6 374q0 -40 26.5 -70.5t68.5 -40.5v-376h-63q-14 0 -23 -8.5t-9 -20.5t9 -20t23 -8h950q13 0 22.5 8t9.5 20t-9.5 20.5t-22.5 8.5h-63v376q41 10 68 40.5t27 70.5v29h-1014v-29zM639.5 259q52.5 0 89.5 33.5t37 81.5q0 -40 27 -70.5t68 -40.5v-376h-475v372
q53 0 90 33.5t37 81.5q0 -48 37 -81.5t89.5 -33.5zM354 263v-376h-190v376q42 10 68.5 40.5t26.5 70.5q0 -40 27 -70.5t68 -40.5zM893 660h-760l-127 -229h1014zM274 597l-64 -115q-4 -8 -14 -8q-4 0 -7 2q-6 2 -8 8t1 11l63 115q7 12 21 6q6 -3 8 -8.5t0 -10.5zM400 597
l-63 -115q-5 -8 -14 -8q-4 0 -7 2q-6 2 -8 8t1 11l63 115q7 12 21 6q6 -3 8 -8.5t-1 -10.5zM529 489q0 -6 -5 -10.5t-11.5 -4.5t-11 4.5t-4.5 10.5v114q0 6 4.5 10.5t11 4.5t11.5 -4.5t5 -10.5v-114zM711 476q-4 -2 -8 -2q-9 0 -14 8l-69 114q-3 5 -1.5 11t7.5 9q14 7 22 -6
l69 -115q3 -5 1 -10.5t-7 -8.5zM837 476q-3 -2 -7 -2q-10 0 -14 8l-64 115q-3 5 -1 10.5t8 8.5q14 6 22 -6l63 -115q3 -5 1 -11t-8 -8zM275 54v66q-16 9 -16 25q0 12 9.5 20t22.5 8t22.5 -8t9.5 -20q0 -16 -16 -25v-66q16 -8 16 -24q0 -12 -9.5 -20.5t-22.5 -8.5t-22.5 8.5
t-9.5 20.5q0 16 16 24zM133 718q0 12 9 20t22 8h697q14 0 23 -8t9 -20t-9 -20.5t-23 -8.5h-697q-13 0 -22 8.5t-9 20.5zM561 106l-22 20l89 81l23 -20zM561 25l-22 20l179 162l22 -20zM718 126l22 -20l-89 -81l-23 20z" />
    <glyph glyph-name="uniE608" unicode="&#xe608;" 
d="M488 692q29 -5 48.5 -28t19.5 -53q0 -34 -24 -58t-57.5 -24t-57.5 24t-24 58q0 25 14 46t37 30l-14 39q-35 -14 -56.5 -45t-21.5 -70q0 -51 36 -87t86.5 -36t86.5 36t36 87q0 36 -19 65.5t-50 44.5v17h186v-352h41v393h-268zM152 385q5 30 27.5 49.5t53.5 19.5
q33 0 57 -24t24 -58t-24 -58t-57 -24q-26 0 -46.5 14t-29.5 37l-39 -13q14 -35 45 -57t70 -22q50 0 86 36t36 87t-36 87t-86 36q-36 0 -66 -19t-45 -50h-17v312h332v41h-373q1 -390 0 -394h88zM488 58q29 -5 48.5 -28t19.5 -53q0 -34 -24 -58t-57.5 -24t-57.5 24t-24 58
q0 25 14 46t37 30l-14 39q-35 -14 -56.5 -45t-21.5 -70q0 -51 36 -87t86.5 -36t86.5 36t36 87q0 36 -19 65.5t-50 44.5v2h227v236h-41v-195h-227zM788 386q4 30 27 49.5t53 19.5q34 0 58 -24t24 -58t-24 -58t-58 -24q-25 0 -45.5 14.5t-29.5 36.5l-39 -13q13 -35 44.5 -57
t69.5 -22q51 0 87 36t36 87t-36 87t-87 36q-37 0 -68 -21t-45 -55v-34h33zM437 130h-332v196h-41v-237h373v41z" />
    <glyph glyph-name="uniE609" unicode="&#xe609;" 
d="M687 588q-60 28 -127 40l8 112h191zM504 327l56 -176h-110zM489 632q-93 0 -175 -35l-107 215h271l35 -180h-24zM489 573q81 0 153 -30.5t125 -84t84 -125.5t31 -153t-31 -152.5t-84 -124.5t-125 -84t-153 -31q-82 0 -153 31t-124.5 84t-84 124.5t-30.5 152.5t30.5 153
t84 125.5t124.5 84t153 30.5zM489.5 -146q68.5 0 128 26t105 70.5t71 104.5t25.5 128.5t-25.5 128.5t-71 105t-105 70.5t-128 25.5t-128.5 -25.5t-105 -70.5t-71 -105t-26 -128.5t26 -128.5t71 -104.5t105 -70.5t128.5 -26zM489 454q56 0 105 -21.5t85.5 -58t58 -85.5
t21.5 -105.5t-21.5 -105t-58 -85.5t-85.5 -58t-105 -21t-105 21t-85.5 58t-58 85.5t-21.5 105t21.5 105.5t58 85.5t85.5 58t105 21.5zM668 32q11 13 11 24q0 14 -12 40l-96 240q-4 9 -7 15.5t-4.5 12.5t-4.5 10l-7 11q-6 9 -16 14q-10 7 -26.5 7t-25.5 -7q-5 -2 -10 -6
t-7 -9q-7 -11 -12 -25q-4 -7 -6 -13.5t-4 -10.5l-95 -241q-7 -16 -8 -23q-3 -7 -3 -15q0 -13 11 -24q10 -9 25 -9q16 0 24 8q7 10 18 38l15 20h152l19 -19l3 -9q2 -5 5 -11q5 -10 10 -17q4 -4 10 -7q7 -3 15 -3q16 0 26 9z" />
    <glyph glyph-name="uniE60A" unicode="&#xe60a;" 
d="M592 747q-80 0 -136.5 -56.5t-56.5 -136t56.5 -136t136.5 -56.5t136.5 56.5t56.5 136t-56.5 136t-136.5 56.5zM682 559v-38h-66v-16h65v-38h-65v-46l-52 1v45h-65v38h65v16h-65v38h58l-88 101h58l65 -71l58 71h58l-85 -101h59zM897 279v-9q0 -6 -3 -20t-8 -24t-16 -16.5
t-26 -2.5q0 5 -1 13t-9.5 31t-21.5 43.5t-40 45t-62 39.5l-46 -31q2 -1 5.5 -3t11.5 -8.5t12.5 -12.5t4 -14t-10.5 -15q-5 -3 -26 1t-39 10l-18 6q-2 1 -7 2.5t-21 5t-31.5 4.5t-39 2t-43.5 -3q-23 -3 -31.5 7t-7.5 23q15 24 42 27l-41 42l-49 -15q-16 -11 -23 10
q-9 24 -91 19l4 -79q-11 -9 -26 -23t-39.5 -47.5t-29.5 -60.5q0 -1 -6.5 0t-17 -1.5t-20 -6t-16.5 -13t-7 -23.5v-59q0 -2 0.5 -4.5t4.5 -9.5t10.5 -12.5t20 -10.5t31.5 -5q2 -4 4.5 -11t12 -26t20 -34.5t26.5 -31.5t32 -22v-48q0 -1 -0.5 -3t1 -7.5t4.5 -10t12 -9t22 -6.5
q21 -4 41 -5t30 -1h10h8q5 0 13 4.5t8 13.5q18 -3 45 -7t82 -2.5t76 16.5v-21v-7q5 -10 31 -9h86h7q4 0 11.5 6.5t10.5 19.5v80q3 3 9.5 8.5t22.5 25t28.5 41t21.5 54t8 66.5l23 7q60 29 21 117zM327 251q-8 -14 -18.5 -21.5t-17.5 -3.5t-6 16.5t8.5 26.5t18 21.5t17.5 3.5
t6.5 -16.5t-8.5 -26.5z" />
    <glyph glyph-name="uniE60B" unicode="&#xe60b;" 
d="M685 717q55 -25 58 -27q136 -73 192 -221q2 -6 2 -10q12 -31 12 -62q-72 -14 -223.5 -42.5t-224.5 -41.5q6 53 6 56q4 32 17 157q14 124 17 157q1 6 5 36l3 30q21 0 41.5 -4t53 -15t41.5 -13zM580 398q86 15 287 52q-28 82 -101 142t-157 72q-11 -105 -29 -266zM482 673
q-9 -75 -24 -215.5t-22 -210.5q64 10 178 33q182 33 274 50q7 -40 7 -82t-12.5 -87.5t-33.5 -87.5t-55.5 -81.5t-78.5 -69.5q-116 -78 -253 -71t-243 95q-107 89 -138 225.5t27 261.5q28 62 73 110.5t96.5 76.5t103.5 41.5t101 11.5z" />
    <glyph glyph-name="uniE60C" unicode="&#xe60c;" 
d="M722 0.5q0 37.5 26 63.5t63.5 26t64 -26t26.5 -63.5t-26.5 -64t-64 -26.5t-63.5 26.5t-26 64zM572 599.5q0 37.5 26.5 64t63.5 26.5t63.5 -26.5t26.5 -64t-26.5 -63.5t-63.5 -26t-63.5 26t-26.5 63.5zM122 135q0 62 44 106t106 44t106 -44t44 -106t-44 -106t-106 -44
t-106 44t-44 106zM62 135q0 -87 61.5 -148.5t148.5 -61.5q61 0 111.5 32t76.5 84l202 -35v-6q0 -62 44 -106t106 -44t106 44t44 106t-44 106t-106 44q-45 0 -81.5 -23.5t-54.5 -62.5l-197 35q3 18 3 36q0 82 -55 142l182 182q25 -9 53 -9q62 0 106 44t44 106t-44 106
t-106 44t-106 -44t-44 -106q0 -63 45 -107l-177 -178q-50 30 -108 30q-87 0 -148.5 -61.5t-61.5 -148.5z" />
    <glyph glyph-name="uniE60D" unicode="&#xe60d;" 
d="M618 722l-53 -52l12 -72l-66 35l-66 -34l13 72l-52 53l73 10l34 66l32 -67zM941 443l-54 -52l12 -73l-65 36l-66 -34l13 72l-52 53l73 10l34 66l32 -67zM291 329l-54 -51l12 -73l-65 35l-66 -34l13 73l-53 52l74 10l33 66l33 -66zM969 -224h-914v393h253l1 400h393
l1 -274h265v-519h1zM149 -130h726v332h-265l-1 274h-207l-1 -400h-252v-206z" />
    <glyph glyph-name="uniE60E" unicode="&#xe60e;" 
d="M928 -83h-832q-13 0 -22.5 9.5t-9.5 22.5v703q0 13 9.5 22.5t22.5 9.5t22.5 -9.5t9.5 -22.5v-671h800q13 0 22.5 -9.5t9.5 -22.5t-9.5 -22.5t-22.5 -9.5zM191 75q-11 0 -19 7q-11 8 -13 21t6 23l192 257q8 10 20.5 12t22.5 -5l171 -115l303 241q10 8 23 6.5t21.5 -12
t7 -23.5t-12.5 -21l-320 -255q-19 -15 -38 -2l-165 111l-174 -232q-10 -13 -25 -13z" />
    <glyph glyph-name="uniE60F" unicode="&#xe60f;" 
d="M463 30l24 24l383 383q12 12 12 29.5t-12 30.5l-166 165q-12 12 -29.5 12t-30.5 -12l-383 -383l-24 -24l-17 -18q-7 -6 -10 -14v-1l-2 -6l-67 -249q-4 -15 8 -26q10 -11 26 -7l249 67q2 0 4 0.5t4 1.5q7 3 13 9zM674 617l150 -150l-375 -376l-150 150zM204 -3l21 73
l53 -53zM315 27l-80 81l26 96l14 13l150 -150l-14 -13zM315 27z" />
    <glyph glyph-name="uniE610" unicode="&#xe610;" 
d="M531 -129l317 317q4 3 8.5 8t12.5 20.5t8 31.5v195l-39 -22v-105q1 -4 0 -11.5t-12 -28t-31 -38.5l-97 -97l-148 -149l-70 -69zM621 455q1 6 3.5 15.5t11.5 38t19.5 54.5t27 58t34.5 55t42.5 39.5t49.5 17.5q44 1 75.5 -13.5t46.5 -39t21 -49t5 -49.5q-3 -49 -41.5 -87
t-77.5 -45l1 50l7 2q5 2 18 9t22.5 15.5t17.5 24t8 33.5q0 44 -25.5 77.5t-77.5 28.5q-25 -3 -49.5 -30.5t-42 -65.5t-32 -75t-21.5 -63l-7 -26l-13 -13zM752 597h35v-271q0 -11 -6.5 -23.5t-13.5 -20.5l-7 -8l-403 -400l-295 298q359 357 399 397q12 12 23.5 19t17.5 8l5 1
h211l-49 -122l6 -24l1 -25q-4 -15 -16.5 -25t-28.5 -10q-19 0 -33.5 14t-14.5 33q0 12 11 27t26 18l14 44q-43 -8 -67 -33.5t-24 -56.5q0 -37 26 -63t62.5 -26t63 26t26.5 63q-1 16 -9 39q-2 7 4 28t13 39l7 18zM752 597z" />
    <glyph glyph-name="uniE611" unicode="&#xe611;" 
d="M1000 606l-160 128q-18 14 -40 14h-576q-22 0 -40 -14l-160 -128q-16 -13 -21.5 -32t0.5 -38l64 -192q10 -30 40 -41q10 -3 21 -3q17 0 32 9v-393q0 -26 19 -45t45 -19h576q26 0 45 19t19 45v393q15 -9 32 -9q11 0 21 3q30 11 40 41l64 192q6 19 0.5 38t-21.5 32z
M632 684q-13 -28 -46 -46t-74 -18t-74 18t-46 46h240zM896 364l-96 64v-512h-576v512l-96 -64l-64 192l160 128h134q13 -42 56 -69t98 -27t98 27t56 69h134l160 -128z" />
    <glyph glyph-name="uniE612" unicode="&#xe612;" 
d="M766 -211v168l-342 344l344 342v168l-512 -510z" />
    <glyph glyph-name="uniE613" unicode="&#xe613;" 
d="M296 300q0 -48 -34 -82t-82 -34t-82 34t-34 82t34 82t82 34t82 -34t34 -82zM512 416q-48 0 -82 -34t-34 -82t34 -82t82 -34t82 34t34 82t-34 82t-82 34zM844 416q-48 0 -82 -34t-34 -82t34 -82t82 -34t82 34t34 82t-34 82t-82 34z" />
    <glyph glyph-name="uniE614" unicode="&#xe614;" 
d="M738 163l46 45l-272 272l-272 -272l46 -45l226 226z" />
    <glyph glyph-name="uniE615" unicode="&#xe615;" 
d="M987 560q-15 0 -26 10.5t-11 26.5q0 9 -6.5 15.5t-15.5 6.5h-832q-9 0 -15.5 -6.5t-6.5 -15.5q0 -16 -11 -26.5t-26 -10.5t-26 10.5t-11 26.5q0 40 28.5 68t67.5 28h832q39 0 67.5 -28t28.5 -68q0 -16 -11 -26.5t-26 -10.5zM928 -93h-832q-39 0 -67.5 28t-28.5 68
q0 15 11 26t26 11t26 -11t11 -26q0 -9 6.5 -15.5t15.5 -6.5h832q9 0 15.5 6.5t6.5 15.5q0 15 11 26t26 11t26 -11t11 -26q0 -40 -28.5 -68t-67.5 -28zM129 142v40h58v232l-64 -22l-4 41l91 31h21v-282h47v-40h-149zM394 320q-15 19 -15 49q0 41 29 68t75 27t75 -26.5
t29 -71.5q0 -33 -17 -60.5t-55 -60.5q-32 -27 -64 -63h141v-40h-215v22q52 57 112 113q53 48 53 89q0 26 -16 42t-44 16q-26 0 -42 -15t-16 -37q0 -18 12 -36zM729 223q27 -47 68 -47q28 0 45.5 16.5t17.5 43.5q0 25 -14.5 39t-39.5 14h-23v39h23q45 0 45 47
q0 22 -14.5 35.5t-38.5 13.5q-41 0 -65 -50l-36 22q33 68 101 68q44 0 71 -23t27 -63q0 -46 -43 -70q52 -20 52 -73q0 -45 -30.5 -72t-78.5 -27q-68 0 -104 60zM729 223z" />
    <glyph glyph-name="uniE616" unicode="&#xe616;" 
d="M485 584h55q29 -11 31 -11q67 -31 69 -102q0 -2 -6 -63q-1 -8 0 -13q0 -4 1.5 -12t2 -12t-0.5 -11q-3 -17 -19 -50.5t-17 -54.5q0 -4 -4 -7q-12 -10 -13.5 -26.5t0.5 -30.5q1 -21 20 -25q50 -13 73 -18q51 -10 82 -48.5t27 -86.5h-547q-4 48 27 86.5t81 48.5q42 8 67 16
q19 6 27 30.5t-3 39.5q-16 20 -24 64q-1 7 -7 14q-28 33 -20 73q3 20 0 40q-10 63 14.5 103.5t80.5 53.5zM956 108q-117 0 -142 1q-13 0 -21 9q-45 55 -97 59l-11 4q-1 2 -2 6q32 12 34 12q20 7 23 11.5t1 26.5q-19 5 -67 17q7 12 12 23.5t6.5 26.5t2 22.5t0.5 27.5v23v16
q3 55 37.5 80.5t88.5 12.5q53 -14 60 -71q3 -24 2 -67q-1 -61 21 -94q-45 -10 -50 -11q-17 -6 -19 -11q-6 -24 14 -31q31 -9 40 -11q46 -9 67 -66v-16zM68 124q18 59 90 72q11 2 16 3.5t10.5 7.5t6.5 17q0 9 -3.5 13.5t-12.5 5.5q-5 0 -54 11q10 15 15 34t5.5 29.5t0.5 34.5
q0 52 5 74q15 66 94 63q34 -1 56.5 -19t27.5 -50q4 -22 4 -69q1 -62 21 -96l-33 -9l-33 -9q-4 -21 -0.5 -26t25.5 -12q2 -1 32 -12q-1 -2 -1 -5q-13 -5 -14 -5q-48 -4 -93 -57q-10 -11 -22 -11q-24 -1 -143 -1v16z" />
    <glyph glyph-name="uniE617" unicode="&#xe617;" 
d="M883 312l-331 -395q-28 -26 -40.5 -26t-40.5 26l-330 395q-26 39 -39.5 73.5t-13.5 76.5q0 90 60.5 157t151.5 67q122 0 211 -112q95 112 213 112q91 0 151.5 -67t60.5 -157q0 -81 -53 -150z" />
  </font>
</defs>
</svg>
